<svg width="24" height="24" fill="none" xmlns="http://www.w3.org/2000/svg"><g clip-path="url(#a)" fill="#B5460F"><path d="M23.16 17.189A11.09 11.09 0 0 0 19.9 9.754a11.107 11.107 0 0 0-4.904-2.868A3.008 3.008 0 0 0 12 4.109a3.008 3.008 0 0 0-2.995 2.777 11.108 11.108 0 0 0-4.904 2.868c-2 2-3.148 4.625-3.261 7.435-.476.079-.84.491-.84.989v.71c0 .553.45 1.003 1.003 1.003h21.994c.553 0 1.003-.45 1.003-1.003v-.71c0-.498-.364-.91-.84-.989zM12 5.065c.974 0 1.79.683 1.997 1.594a11.296 11.296 0 0 0-3.994 0A2.051 2.051 0 0 1 12 5.065zm0 2.373c5.472 0 9.953 4.325 10.203 9.736H1.797c.25-5.41 4.73-9.736 10.203-9.736zm11.044 11.45a.047.047 0 0 1-.047.047H1.003a.047.047 0 0 1-.047-.047v-.71c0-.026.021-.047.047-.047h21.994c.026 0 .047.02.047.047v.71z"/><path d="M21.42 15.854a9.611 9.611 0 0 0-1.685-3.869.478.478 0 0 0-.771.566 8.529 8.529 0 0 1 1.516 3.48.478.478 0 0 0 .94-.177zM18.71 10.804a9.55 9.55 0 0 0-.318-.298.478.478 0 0 0-.637.712c.097.087.194.178.286.269a.477.477 0 0 0 .676-.007.478.478 0 0 0-.006-.676z"/></g><defs><clipPath id="a"><path fill="#fff" d="M0 0h24v24H0z"/></clipPath></defs></svg>