<svg width="24" height="24" fill="none" xmlns="http://www.w3.org/2000/svg"><path fill-rule="evenodd" clip-rule="evenodd" d="M4.95 1.674A3.275 3.275 0 0 0 1.674 4.95.837.837 0 0 1 0 4.95a4.95 4.95 0 1 1 9.9 0v7.716c.409-.244.878-.455 1.373-.635 1.487-.542 3.4-.868 5.192-.868 1.795 0 3.578.327 4.941.878.68.275 1.296.622 1.758 1.048.459.425.836.998.836 1.702v1.322a7.887 7.887 0 1 1-15.775 0V4.95A3.275 3.275 0 0 0 4.95 1.674zm17.29 15.471a6.215 6.215 0 0 1-12.285-.197c.396.23.845.43 1.318.603 1.487.541 3.4.868 5.192.868 1.795 0 3.578-.327 4.941-.879.292-.118.573-.25.834-.395zm.086-2.354c0-.068-.035-.228-.298-.472-.262-.241-.68-.495-1.25-.726-1.133-.458-2.698-.756-4.313-.756-1.616 0-3.332.299-4.62.767-.647.236-1.14.498-1.456.752-.33.266-.342.419-.342.435 0 .016.012.168.342.434.315.255.809.517 1.456.752 1.288.469 3.004.767 4.62.767 1.614 0 3.18-.297 4.313-.756.57-.23.988-.484 1.25-.726.264-.244.298-.404.298-.471z" fill="#B5460F"/></svg>