<svg width="36" height="36" fill="none" xmlns="http://www.w3.org/2000/svg"><g clip-path="url(#a)"><path d="M17.858.506C27.521.506 35.352 8.338 35.352 18c0 9.663-7.831 17.494-17.493 17.494C8.196 35.494.364 27.663.364 18 .365 8.338 8.197.506 17.859.506z" fill="#fff"/><path d="M17.769 33.434c8.67 0 15.698-7.028 15.698-15.698 0-8.67-7.028-15.699-15.698-15.699-8.67 0-15.699 7.029-15.699 15.699S9.1 33.434 17.77 33.434z" fill="url(#b)"/><path d="M18.19 30.361c-1.8-2.203-2.748-3.352-2.842-3.446-.356-.427-.96-1.018-1.812-1.776.378-2.038.876-3.625 1.492-4.762.237-.403 1.22-1.73 2.95-3.98.947 1.966 2.227 3.293 3.837 3.98.354.142 1.883.462 4.582.96 1.991.401 3.59 1.148 4.798 2.238 1.705 1.539 3.185 4.098 4.44 7.674-5.092-2.866-8.728-3.872-10.907-3.02a33.234 33.234 0 0 1-2.629 1.457c-1.113.568-2.416.794-3.91.675z" fill="#fff"/><path d="M18.759 12.595c-.214 1.35-.675 2.453-1.386 3.305-.403.497-1.185 1.184-2.346 2.06-2.321 1.706-4.003 3.909-5.045 6.61-1.018 2.558-1.279 5.152-.781 7.782l-.746.07c-.57-2.652-.332-5.27.71-7.852 1.066-2.748 2.867-5.047 5.401-6.893 1.398-1.043 2.31-2.428 2.736-4.157.332-1.421.296-2.973-.107-4.655-.307-1.445-.817-2.523-1.527-3.234-.687-.686-1.374-.935-2.061-.745-1.611.426-2.227 2.463-1.848 6.11.356 3.46 1.02 5.639 1.99 6.539-.971.071-1.812-1.255-2.523-3.98-.687-2.7-.782-5.046-.285-7.035.214-.995.676-1.741 1.386-2.238 1.09-.759 2.357-.664 3.803.284.947.616 1.646 1.575 2.095 2.878.545 1.42.724 3.138.534 5.151zm-6.893 20.01c-1.35-6.073-.438-10.456 2.736-13.153-2.156 4.688-2.724 9.095-1.706 13.225l-1.03-.073z" fill="#fff"/></g><defs><linearGradient id="b" x1="15.043" y1="2.273" x2="20.495" y2="33.199" gradientUnits="userSpaceOnUse"><stop stop-color="#B5460F"/><stop offset="1" stop-color="#B5460F"/></linearGradient><clipPath id="a"><path fill="#fff" d="M0 0h36v36H0z"/></clipPath></defs></svg>